# xmcd
#
# Track frame offsets:
# 150
# 4601
# 24804
# 47068
# 66101
# 81852
# 97484
# 113057
# 131822
# 147375
# 168220
# 192186
# 212876
# 231605
# 250454
# 266764
# 310724
# 320374
# 335350
#
# Disc length: 4683 seconds
#
#
# Revision: 0
# Processed by: cddbd v1.5.1PL2 Copyright (c) Steve Scherf et al.
# Submitted via: FreeRIP 2.60 
#
DISCID=15124913
DTITLE=Gabriel Lener - Gabriel Lener
DYEAR=2005
DGENRE=Country
TTITLE0=Abertura
TTITLE1=Coração
TTITLE2=A Nova Dança do Brasil
TTITLE3=Sonhos
TTITLE4=Te Amar Pra Sempre Assim
TTITLE5=Quero
TTITLE6=Swing Louco
TTITLE7=O Que Tem Que Ser Será
TTITLE8=Palavras de Carinho
TTITLE9=Balancê no Balançar
TTITLE10=Pica Pau
TTITLE11=Mexe Mexe
TTITLE12=Vou te Buscar
TTITLE13=Borogodó
TTITLE14=Revoar
TTITLE15=Tô Ligando
TTITLE16=Princípio do Fim
TTITLE17=Tremo Tremo
TTITLE18=Chamego Dela
EXTD=
EXTT0=
EXTT1=
EXTT2=
EXTT3=
EXTT4=
EXTT5=
EXTT6=
EXTT7=
EXTT8=
EXTT9=
EXTT10=
EXTT11=
EXTT12=
EXTT13=
EXTT14=
EXTT15=
EXTT16=
EXTT17=
EXTT18=
PLAYORDER=
